<svg xmlns="http://www.w3.org/2000/svg" version="1.1" xmlns:xlink="http://www.w3.org/1999/xlink" x="0" y="0" viewBox="0 0 450 450" style="enable-background:new 0 0 512 512" xml:space="preserve"><g><path fill="#1a3a49" d="M10.498 396.86h429.508v4H10.498z" opacity="1" data-original="#1a3a49"/><path fill="#0e1738" d="M421.648 213.53h-3v-7.436c0-3.016-2.454-5.47-5.47-5.47s-5.47 2.454-5.47 5.47v7.435h-3v-7.435c0-4.67 3.799-8.47 8.47-8.47s8.47 3.8 8.47 8.47z" opacity="1" data-original="#0e1738"/><path fill="#fcc283" d="M426.44 215.044v19.512a3.3 3.3 0 0 1-3.302 3.302h-19.506a3.3 3.3 0 0 1-3.302-3.302v-19.512a3.3 3.3 0 0 1 3.302-3.302h19.506a3.3 3.3 0 0 1 3.302 3.302z" opacity="1" data-original="#fcc283"/><path fill="#0e1738" d="m409.378 229.85 2.462-4.105a3.277 3.277 0 0 1-1.94-2.997 3.298 3.298 0 1 1 4.664 2.997l2.462 4.104z" opacity="1" data-original="#0e1738"/><path fill="#218ae5" d="M359.172 49.143h-9.523v318.676h9.523c15.83 0 28.661-12.832 28.661-28.66V77.803c0-15.83-12.832-28.661-28.66-28.661z" opacity="1" data-original="#218ae5"/><path fill="#82cafa" d="M380.561 75.1v266.76c0 14.34-11.62 25.96-25.96 25.96h-133.43c-14.34 0-25.96-11.62-25.96-25.96V75.1c0-14.34 11.62-25.96 25.96-25.96h133.43c14.34 0 25.96 11.62 25.96 25.96z" opacity="1" data-original="#82cafa"/><path fill="#ffffff" d="M204.043 314.529V75.934c0-9.918 8.04-17.959 17.959-17.959h131.77c9.92 0 17.96 8.04 17.96 17.959v238.595c0 9.918-8.04 17.958-17.96 17.958h-131.77c-9.918 0-17.959-8.04-17.959-17.958z" opacity="1" data-original="#ffffff"/><circle cx="287.885" cy="350.157" r="7.173" fill="#218ae5" opacity="1" data-original="#218ae5"/><path fill="#e8e9fd" d="M342.905 142.31c-4.514 21.1-19.91 48.98-54.736 59.054-37.084-10.726-50.083-37.301-54.736-59.054 7.117-3.39 12.026-10.65 12.026-19.045 0-8.914-5.536-16.536-13.352-19.624l17.272-18.877s7.032 8.853 18.695 9.65c11.652.808 20.095-11.857 20.095-11.857s8.443 12.665 20.107 11.857c11.663-.797 18.695-9.65 18.695-9.65l17.26 18.877c-7.815 3.088-13.34 10.71-13.34 19.624 0 8.395 4.91 15.656 12.014 19.045z" opacity="1" data-original="#e8e9fd"/><path fill="#37c092" d="M288.164 194.233c-24.544-7.671-40.33-24.056-46.94-48.718a27.94 27.94 0 0 0 11.063-22.25c0-8.242-3.467-15.81-9.586-21.087l7.104-7.765c4.063 3.04 10.11 6.287 17.805 6.813a22.23 22.23 0 0 0 1.535.053c8.055 0 14.602-4.304 19.025-8.426 4.425 4.122 10.975 8.426 19.034 8.426.512 0 1.032-.018 1.543-.054 7.69-.525 13.734-3.772 17.797-6.81l7.098 7.762c-6.114 5.276-9.578 12.844-9.578 21.088a27.953 27.953 0 0 0 11 22.208c-3.567 12.267-14.799 38.607-46.9 48.76z" opacity="1" data-original="#37c092"/><circle cx="288.169" cy="141.155" r="15.142" fill="#ffffff" opacity="1" data-original="#ffffff"/><path fill="#11153a" d="m285.609 148.347-4.227-4.781 2.248-1.987 2.113 2.391 7.202-7.2 2.12 2.12z" opacity="1" data-original="#11153a"/><path fill="#e8e9fd" d="M222.741 216.697h131.03v20h-131.03zM222.741 246.697h131.03v20h-131.03z" opacity="1" data-original="#e8e9fd"/><path fill="#fe6081" d="M325.125 304.364h-73.739a2.855 2.855 0 0 1-2.855-2.855v-21.957a2.855 2.855 0 0 1 2.855-2.855h73.739a2.855 2.855 0 0 1 2.855 2.855v21.957a2.855 2.855 0 0 1-2.855 2.855z" opacity="1" data-original="#fe6081"/><circle cx="262.311" cy="226.697" r="3.472" fill="#a7abc6" opacity="1" data-original="#a7abc6"/><circle cx="275.283" cy="226.697" r="3.472" fill="#a7abc6" opacity="1" data-original="#a7abc6"/><circle cx="288.256" cy="226.697" r="3.472" fill="#a7abc6" opacity="1" data-original="#a7abc6"/><circle cx="301.228" cy="226.697" r="3.472" fill="#a7abc6" opacity="1" data-original="#a7abc6"/><circle cx="314.2" cy="226.697" r="3.472" fill="#a7abc6" opacity="1" data-original="#a7abc6"/><path fill="#a7abc6" d="m260.434 255.487-2.2 1.2 2.2 1.2-.99 1.66-2.23-1.32.04 2.48h-1.9l.04-2.49-2.25 1.33-.95-1.66 2.18-1.2-2.18-1.2.95-1.66 2.25 1.35-.04-2.49h1.9l-.04 2.48 2.23-1.34zM273.207 255.487l-2.2 1.2 2.2 1.2-.99 1.66-2.23-1.32.04 2.48h-1.9l.04-2.49-2.24 1.33-.96-1.66 2.19-1.2-2.19-1.2.96-1.66 2.24 1.34-.04-2.48h1.9l-.04 2.48 2.23-1.34zM285.99 255.487l-2.2 1.2 2.2 1.2-.99 1.66-2.23-1.32.04 2.48h-1.9l.04-2.49-2.25 1.33-.95-1.66 2.18-1.2-2.18-1.2.95-1.66 2.25 1.35-.04-2.49h1.9l-.04 2.48 2.23-1.34zM298.762 255.487l-2.2 1.2 2.2 1.2-.99 1.66-2.23-1.32.04 2.48h-1.9l.04-2.49-2.25 1.33-.95-1.66 2.19-1.2-2.19-1.2.95-1.66 2.25 1.35-.04-2.49h1.9l-.04 2.48 2.23-1.34zM311.544 255.487l-2.2 1.2 2.2 1.2-1 1.66-2.22-1.31.04 2.47h-1.9l.04-2.49-2.25 1.33-.95-1.66 2.18-1.2-2.18-1.2.95-1.66 2.25 1.35-.04-2.49h1.9l-.04 2.47 2.22-1.33zM322.117 256.687l2.2 1.2-.99 1.66-2.23-1.32.04 2.48h-1.9l.04-2.49-2.25 1.33-.95-1.66 2.18-1.2-2.18-1.2.95-1.66 2.25 1.35-.04-2.49h1.9l-.04 2.48 2.23-1.34.99 1.66z" opacity="1" data-original="#a7abc6"/><path fill="#ffffff" d="M266.794 294.73v-8.4h1.956v6.817h4.188v1.583h-6.144zM279.165 294.875a5.015 5.015 0 0 1-1.824-.325c-.56-.215-1.048-.52-1.464-.911s-.738-.852-.966-1.38a4.311 4.311 0 0 1-.342-1.729c0-.632.114-1.21.342-1.734s.55-.982.966-1.374a4.464 4.464 0 0 1 1.458-.912c.556-.216 1.166-.323 1.83-.323s1.274.106 1.83.317c.556.212 1.042.515 1.458.907s.738.852.966 1.38.342 1.107.342 1.74c0 .623-.114 1.201-.342 1.734-.228.531-.55.994-.966 1.385a4.375 4.375 0 0 1-1.458.907 5.1 5.1 0 0 1-1.83.318zm0-1.645c.376 0 .722-.065 1.038-.198a2.52 2.52 0 0 0 .834-.564c.24-.243.426-.528.558-.851a2.86 2.86 0 0 0 .198-1.087c0-.4-.066-.761-.198-1.086a2.616 2.616 0 0 0-.558-.852 2.535 2.535 0 0 0-.834-.564c-.316-.131-.662-.197-1.038-.197s-.724.066-1.044.197c-.32.133-.598.32-.834.564-.236.244-.42.529-.552.852a2.858 2.858 0 0 0-.198 1.086c0 .4.066.763.198 1.087.132.323.316.608.552.851.236.244.514.432.834.564.32.133.668.198 1.044.198zM290.481 294.875c-.664 0-1.276-.106-1.836-.318s-1.044-.514-1.451-.907c-.409-.391-.727-.852-.955-1.38s-.342-1.107-.342-1.74c0-.632.114-1.212.342-1.74s.55-.987.966-1.38.905-.694 1.465-.906a5.18 5.18 0 0 1 1.847-.317c.744 0 1.414.124 2.01.372a3.983 3.983 0 0 1 1.506 1.08l-1.235 1.152a3.096 3.096 0 0 0-1.009-.727 2.96 2.96 0 0 0-1.188-.233c-.4 0-.768.066-1.104.197a2.483 2.483 0 0 0-1.434 1.41 2.903 2.903 0 0 0-.198 1.092c0 .385.066.742.198 1.075.132.332.32.618.565.857.243.24.531.429.863.564.332.137.698.204 1.099.204.383 0 .757-.063 1.122-.191.363-.128.717-.34 1.062-.637l1.104 1.405c-.465.352-.996.617-1.597.798s-1.2.27-1.8.27zm1.62-1.32v-3.157h1.777v3.409zM296.878 294.73v-8.4h1.956v8.4zM302.013 294.73v-8.4h1.608l4.956 6.048h-.78v-6.047h1.92v8.4h-1.608l-4.956-6.048h.78v6.047z" opacity="1" data-original="#ffffff"/><path fill="#3a6dc9" d="m94.935 396.667-.294-1.912L81.7 310.668h49.483l1.882 86z" opacity="1" data-original="#3a6dc9"/><path fill="#1c5ab5" d="m81.7 310.668 12.94 84.087 6.062-84.087z" opacity="1" data-original="#1c5ab5"/><path fill="#3a6dc9" d="M45.473 396.667v-85.999h55.229l-13.43 86z" opacity="1" data-original="#3a6dc9"/><path fill="#fec3bd" d="M226.136 228.76c2.852-1.606 7.327-3.618 8.624-1.27 1.958 3.521-8.725 7.08-8.725 7.08s9.29-1.022 6.52 3.902c-2.782 4.932-27.592 11.326-27.592 11.326l-7.097-20.02s8.25-14.008 11.174-10.813c1.358 1.485-1.032 9.026-1.032 9.026s14.623-11.83 17.033-8.403c1.286 1.855-1.515 4.388-4.368 6.345 4.924-2.775 11.862-6.286 12.577-4.536.763 1.885-4.035 5.368-7.114 7.363z" opacity="1" data-original="#fec3bd"/><path fill="#06112d" d="M112.737 86.154c2.399 2.227 4.855 9.993 5.432 13.215a52.95 52.95 0 0 1-1.732 25.482c-.406 1.259-.904 2.565-1.925 3.407-1.575 1.297-3.933 1.09-5.808.286-3.047-1.307-5.39-3.945-6.848-6.923-1.457-2.978-2.102-6.289-2.46-9.585a60.367 60.367 0 0 1 2.092-23.47M71.1 197.032c-.607.256-1.247.49-1.823.821-1.867 1.077-2.763 3.019-3.563 5.089l-18.966 8.939-.672-.129c-.416-.074-.832-.16-1.248-.255-2.657-.598-5.323-1.558-6.913-3.692-1.717-2.303-1.77-5.493-.992-8.256.79-2.752 2.304-5.238 3.574-7.819 1.258-2.57 2.293-5.398 1.994-8.246-.362-3.37-2.496-6.272-3.317-9.557-1.227-4.971.779-10.294 4.064-14.22 3.275-3.925 8.47-5.045 12.15-8.608 1.675-1.632 2.848-2.71 2.848-2.71l7.574 1.227s.714 3.072 1.493 6.593c.726 3.296 1.504 7.008 1.75 8.907.618 4.587 1.194 14.08 1.6 22.049.192 3.904.341 7.445.448 9.867z" opacity="1" data-original="#06112d"/><path fill="#3d479c" d="m46.076 211.752.672.129-2.56 1.205.64-1.59c.416.096.832.182 1.248.256zM46.748 211.88l18.966-8.938c-.661 1.663-1.238 3.402-2.23 4.842-1.781 2.603-4.874 4.097-8 4.555-2.901.437-5.846.075-8.736-.458zM69.277 197.853c.576-.33 1.216-.565 1.824-.821.085 2.048.128 3.306.128 3.306l-5.515 2.604c.8-2.07 1.696-4.012 3.563-5.089zM73.352 195.517c-.534.768-1.366 1.163-2.251 1.515-.107-2.422-.256-5.963-.448-9.867.192.426.416.843.672 1.248.693 1.12 1.568 2.133 2.101 3.328.533 1.205.683 2.699-.074 3.776z" opacity="1" data-original="#3d479c"/><path fill="#fe6081" d="M67.307 156.206c-8.605-.2-11.923-5.107-11.923-5.107 1.68-1.628 2.848-2.708 2.848-2.708l7.576 1.23s.72 3.067 1.499 6.585zM206.476 250.968s-33.948 30.522-55.982 29.455c-1.727-.077-3.289-.319-4.675-.759-13.454-4.202-30.956-29.57-37.226-39.239-1.518-2.332-2.376-3.751-2.376-3.751l-1.364-62.516s20.89 2.134 31.89 23.3c11.001 21.153 18.305 46.551 18.305 46.551l42.818-16.705z" opacity="1" data-original="#fe6081"/><path fill="#b94768" d="M150.494 280.423c-1.727-.077-3.289-.319-4.675-.759-13.454-4.202-30.956-29.57-37.226-39.239l13.949-48.325 7.755 18.37s10.45 12.376 10.726 23.652c.242 9.714-2.585 35.774 9.471 46.301z" opacity="1" data-original="#b94768"/><path fill="#fe6081" d="M42.574 311.556c.201 4.2.37 7.772.497 10.46h92.66l-2.831-62.291s-.488-3.503.82-6.107c3.862-7.58 6.266-23.3-7.226-37.553 0 0-.872-26.774-10.164-34.746-6.169-5.292-9.38-7.462-17.477-8.223-8.234-.78-22.574-.341-30.808.42-8.897.819-25.11 5.287-29.95 12.789-2.828 4.39-2.087 22.389-.4 40.924 1.484 16.34 3.718 60.445 4.879 84.327z" opacity="1" data-original="#fe6081"/><path fill="#b94768" d="m84.297 271.808-2.823 27.964-38.9 11.784c-1.161-23.882-3.395-67.986-4.878-84.327 3.522-16.555 6.398-35.802 10.671-37.938 0 0 10.543 5.807 12.171 19.162 1.93 15.824-9.558 55.91-9.558 55.91z" opacity="1" data-original="#b94768"/><path fill="#fec3bd" d="M81.027 276.945s18.364-13.236 21.448-11.272c3.045 1.95-4.996 11.548-4.996 11.548" opacity="1" data-original="#fec3bd"/><path fill="#06112d" d="M105.896 255.778h2.99L99.989 306h-2.99c-2.491 0-4.152-2.017-3.71-4.508l7.3-41.195c.442-2.5 2.818-4.518 5.308-4.518z" opacity="1" data-original="#06112d"/><path fill="#0e1738" d="m103.428 260.296-7.3 41.195c-.441 2.49 1.22 4.508 3.71 4.508h23.329c2.49 0 4.866-2.017 5.307-4.508l7.3-41.195c.443-2.5-1.218-4.518-3.708-4.518h-23.33c-2.49 0-4.865 2.018-5.308 4.518z" opacity="1" data-original="#0e1738"/><path fill="#fec3bd" d="M97.479 277.22c2.167-.246 18.295-2.057 17.22 1.98-.39 1.468-3.584 3.152-5.009 3.507 4.4.124 10.637 1.474 10.222 3.483-.575 2.796-5.918 2.51-7.78 2.325 1.893.256 7.32 1.223 6.194 3.84-.685 1.593-7.22 2.065-9.277 2.132 1.497.492 7.178 1.79 4.616 4.414-3.296 3.375-35.785-1.517-35.785-1.517l3.147-20.439" opacity="1" data-original="#fec3bd"/><path fill="#fe6081" d="M39.2 184.71c-11.903 5.429-33.285 77.867-28.887 97.14 6.253 27.403 71.161 17.922 71.161 17.922l2.823-27.964-40.663-4.537s17.23-36.705 15.456-60.98C57.645 186.536 39.2 184.71 39.2 184.71z" opacity="1" data-original="#fe6081"/><path fill="#fec3bd" d="M94.317 189.43c-17.813 5.122-26.272-15.915-26.272-15.915l1.659-26.407 10.038-1.903 8.663 5.96 8 5.503-1.025 10.614-.517 5.404s5.863 14.9-.546 16.744z" opacity="1" data-original="#fec3bd"/><path fill="#f18b89" d="m96.404 156.668-1.024 10.614s-19.111-7.19-21.91-15.394c-1.884-5.542 8.194-2.976 14.935-.722z" opacity="1" data-original="#f18b89"/><path fill="#fec3bd" d="M103.616 162.863c-20.235 5.755-33.91-15.76-33.91-15.76s-11.628-1.789-12.075-10.582 6.557-9.839 8.945-7.307c0 0 3.13-37.569 26.978-36.97 9.374.233 15.697 10.44 18.712 23.006 4.651 19.402 3.228 44.235-8.65 47.613z" opacity="1" data-original="#fec3bd"/><path fill="#06112d" d="M116.063 105.7c-1.963 21.153-40.183.885-36.45 7.648 3.734 6.752-2.143 5.99-6.379 14.336-3.155 6.217-2.821 9.284-3.621 9.617-.992.413-1.748-1.585-2.257-3.698-1.244-5.161-8.89-4.906-9.63.35-.108.77-.146 1.622-.098 2.564.448 8.8 12.075 10.582 12.075 10.582l-.448 7.136c-37.466-9.03-32.488-73.248 19.863-75.385 20.183-.823 28.897 5.696 26.945 26.85z" opacity="1" data-original="#06112d"/><ellipse cx="91.882" cy="127.683" fill="#06112d" rx="1.82" ry="2.729" transform="rotate(-2.56 91.567 126.925)" opacity="1" data-original="#06112d"/><path fill="#06112d" d="M89.117 123.63a.5.5 0 0 1-.312-.891c3.532-2.816 5.753-.88 5.847-.797a.5.5 0 0 1-.666.746c-.074-.064-1.723-1.427-4.558.833a.498.498 0 0 1-.311.11z" opacity="1" data-original="#06112d"/><ellipse cx="107.261" cy="127.683" fill="#06112d" rx="1.82" ry="2.729" transform="rotate(-2.56 106.85 126.91)" opacity="1" data-original="#06112d"/><path fill="#06112d" d="M104.496 123.63a.5.5 0 0 1-.312-.891c3.532-2.817 5.754-.88 5.847-.797a.5.5 0 0 1-.667.745c-.081-.07-1.728-1.42-4.557.834a.498.498 0 0 1-.311.11z" opacity="1" data-original="#06112d"/><path fill="#f18b89" d="M102.699 141.96a.499.499 0 0 1-.333-.873c.518-.461.815-1.073.834-1.723a2.316 2.316 0 0 0-.698-1.712c-.215-.215-.466-.406-.716-.597-.174-.134-.35-.268-.514-.408-1.164-.99-1.948-2.378-2.265-4.015-.278-1.43-.19-2.862-.106-4.248a.509.509 0 0 1 .53-.468.5.5 0 0 1 .468.529c-.08 1.323-.164 2.691.089 3.997.274 1.412.942 2.602 1.931 3.443.152.13.314.252.475.375.276.212.562.431.816.685a3.307 3.307 0 0 1 .99 2.449c-.028.927-.443 1.794-1.169 2.44a.497.497 0 0 1-.332.126zM98.161 149.516c-2.345 0-4.669-1.23-5.974-3.182a.5.5 0 1 1 .83-.555c1.164 1.737 3.27 2.806 5.355 2.733a.485.485 0 0 1 .518.48.5.5 0 0 1-.481.519 5.98 5.98 0 0 1-.248.005z" opacity="1" data-original="#f18b89"/><path fill="#f9dae0" d="M189.113 75.487s-4.391 21.134-17.43 25.239c-12.808-4.105-16.019-25.239-16.019-25.239 13.452-2.585 17.035-11.099 17.035-11.099s3.107 8.514 16.414 11.1z" opacity="1" data-original="#f9dae0"/><path fill="#ffffff" d="m167.984 89.689-3.593-5.774 3.395-2.114 1.456 2.338 10.086-6.443 2.153 3.372z" opacity="1" data-original="#ffffff"/><circle cx="423.88" cy="121.436" r="16.394" fill="#f7b3c2" opacity="1" data-original="#f7b3c2"/><circle cx="426.44" cy="119.233" r="6.303" fill="#ffffff" opacity="1" data-original="#ffffff"/><circle cx="426.44" cy="119.233" r="3.609" fill="#f7b3c2" opacity="1" data-original="#f7b3c2"/><path fill="#ffffff" d="m421.845 121.91-5.04 5.432a1.55 1.55 0 0 0 2.27 2.106l5.04-5.432z" opacity="1" data-original="#ffffff"/><circle cx="173.247" cy="157.923" r="13.526" fill="#f9dae0" opacity="1" data-original="#f9dae0"/><circle cx="173.247" cy="152.768" r="2.969" fill="#ffffff" opacity="1" data-original="#ffffff"/><path fill="#ffffff" d="M180.744 164.627c-.066-4.09-3.392-7.388-7.497-7.388-4.106 0-7.431 3.298-7.498 7.388z" opacity="1" data-original="#ffffff"/></g></svg>